<?xml version="1.0" encoding="UTF-8"?>
<!DOCTYPE svg PUBLIC "-//W3C//DTD SVG 1.1//EN" "http://www.w3.org/Graphics/SVG/1.1/DTD/svg11.dtd">
<!-- Creator: CorelDRAW X6 -->
<svg xmlns="http://www.w3.org/2000/svg" xml:space="preserve" width="100mm" height="100mm" version="1.1" style="shape-rendering:geometricPrecision; text-rendering:geometricPrecision; image-rendering:optimizeQuality; fill-rule:evenodd; clip-rule:evenodd"
viewBox="0 0 10000 10000"
 xmlns:xlink="http://www.w3.org/1999/xlink">
 <defs>
  <style type="text/css">
   <![CDATA[
    .fil0 {fill:#23D3D3}
   ]]>
  </style>
 </defs>
 <g id="Layer_x0020_1">
  <metadata id="CorelCorpID_0Corel-Layer"/>
  <path class="fil0" d="M5000 0c2761,0 5000,2239 5000,5000 0,2761 -2239,5000 -5000,5000 -2761,0 -5000,-2239 -5000,-5000 0,-2761 2239,-5000 5000,-5000zm-3003 4711c315,-595 1225,-1172 1534,-1213 117,0 157,146 157,239 0,297 -537,1370 -1551,2823 -47,64 -99,146 -99,227 0,146 198,286 332,274 181,-12 519,-426 420,-671 443,-641 1411,-2146 1411,-2898 0,-362 -187,-653 -577,-653 -898,0 -2315,1044 -2397,1936 -17,163 414,432 525,432 111,0 402,-239 490,-303 58,-47 175,-111 175,-198 0,-29 -23,-58 -52,-58 -64,0 -157,23 -222,35l-146 29zm4327 -461c105,-163 210,-296 204,-500l1079 -78c128,-12 758,-6 758,175 0,286 -781,618 -1021,682l-1452 379 432 -659zm974 2560c157,58 571,262 723,262 198,0 175,-437 64,-641 -29,-47 -6,-198 -1009,-519l-1575 -502 0 -12c2099,-391 2391,-385 2869,-770 233,-187 420,-635 420,-931 0,-747 -1137,-800 -1674,-800 -1178,0 -2438,309 -2712,637 -117,146 -297,518 -297,704 0,111 122,140 210,140 169,0 379,-41 542,-58l455 -47c29,0 111,-17 111,-64 0,-87 -117,-64 -484,-99l0 -12c397,-156 828,-232 1254,-301l-863 1246c-542,18 -846,297 -898,601 -23,117 187,192 280,216l-542 892c-58,93 -99,175 -99,286 0,76 64,122 134,122 157,0 502,-216 432,-420l502 -729 2158 799z"/>
 </g>
</svg>
