<?xml version="1.0" encoding="UTF-8"?>
<!DOCTYPE svg PUBLIC "-//W3C//DTD SVG 1.1//EN" "http://www.w3.org/Graphics/SVG/1.1/DTD/svg11.dtd">
<!-- Creator: CorelDRAW X6 -->
<svg xmlns="http://www.w3.org/2000/svg" xml:space="preserve" width="100mm" height="100mm" version="1.1" style="shape-rendering:geometricPrecision; text-rendering:geometricPrecision; image-rendering:optimizeQuality; fill-rule:evenodd; clip-rule:evenodd"
viewBox="0 0 10000 10000"
 xmlns:xlink="http://www.w3.org/1999/xlink">
 <defs>
  <style type="text/css">
   <![CDATA[
    .fil0 {fill:#23D3D3}
   ]]>
  </style>
 </defs>
 <g id="Layer_x0020_1">
  <metadata id="CorelCorpID_0Corel-Layer"/>
  <path class="fil0" d="M5000 0l0 0c2750,0 5000,2250 5000,5000l0 5000 -5000 0c-2750,0 -5000,-2250 -5000,-5000l0 0c0,-2750 2250,-5000 5000,-5000zm-1904 2198l641 0 0 529c0,291 -238,528 -529,528l-641 0 0 -528c0,-291 238,-529 528,-529zm994 585c0,322 263,585 585,585l585 0 1078 0c224,0 407,183 407,407 0,224 -183,407 -407,407l-832 0 -246 0 -1116 0c-18,0 -36,-1 -54,-4l0 248 0 853 0 1727c0,322 263,585 585,585l585 0 0 -2008 2008 1986c229,226 601,224 827,-5l411 -416 -1907 -1886c741,-110 1315,-753 1315,-1524 0,-128 -16,-252 -45,-371 -167,-670 -776,-1170 -1495,-1170l-1699 0 -585 0 0 585zm-353 585l0 3627c0,328 -263,596 -585,596l-585 0 0 -4223 1170 0z"/>
 </g>
</svg>
