<?xml version="1.0" encoding="UTF-8"?>
<!DOCTYPE svg PUBLIC "-//W3C//DTD SVG 1.1//EN" "http://www.w3.org/Graphics/SVG/1.1/DTD/svg11.dtd">
<!-- Creator: CorelDRAW X6 -->
<svg xmlns="http://www.w3.org/2000/svg" xml:space="preserve" width="100mm" height="100mm" version="1.1" style="shape-rendering:geometricPrecision; text-rendering:geometricPrecision; image-rendering:optimizeQuality; fill-rule:evenodd; clip-rule:evenodd"
viewBox="0 0 10000 10000"
 xmlns:xlink="http://www.w3.org/1999/xlink">
 <defs>
  <style type="text/css">
   <![CDATA[
    .fil0 {fill:#23d3d3}
   ]]>
  </style>
 </defs>
 <g id="Layer_x0020_1">
  <metadata id="CorelCorpID_0Corel-Layer"/>
  <path class="fil0" d="M5000 0c2761,0 5000,2240 5000,5004 0,1787 -937,3356 -2346,4241l-939 -1862 -90 -178c234,-139 430,-335 568,-570 142,-241 223,-522 223,-822 0,-876 -693,-1589 -1557,-1614 -16,0 -32,-1 -48,-1l-533 0 -812 0 0 734 0 1703 0 59c0,-27 0,-15 0,-59l-276 0c-467,0 -849,-382 -849,-849l0 -5502c519,-183 1078,-283 1659,-283zm1934 9620c-514,216 -1071,348 -1656,380l0 -1863 0 -754 0 -47 0 -702 0 -201 0 -1242 0 -201 582 0 0 3c428,25 768,382 768,819 0,313 -174,585 -431,724 -13,7 -26,14 -39,20l-155 79 -142 72 -315 159 261 517 22 44c37,74 1,2 32,63l1074 2129zm-2468 360c-2510,-267 -4466,-2393 -4466,-4975 0,-1858 1012,-3480 2515,-4343l0 5176c0,850 695,1546 1545,1546l405 0 0 2596z"/>
 </g>
</svg>
